<svg xmlns="http://www.w3.org/2000/svg" width="110" height="110" viewBox="0 0 110 110">
  <g id="Group_23" data-name="Group 23" transform="translate(-931.667 -411.667)">
    <g id="Group_7" data-name="Group 7" transform="translate(950.605 420.795)">
      <path id="Path_35" data-name="Path 35" d="M580.144,647.751a1.515,1.515,0,0,0-1.071-.444H533.805a10.624,10.624,0,0,0-10.613,10.613v69.751a10.624,10.624,0,0,0,10.613,10.613h51.554a10.626,10.626,0,0,0,10.616-10.613V664.209a1.526,1.526,0,0,0-.444-1.074Zm-2.366,4.732L590.8,665.5h-5.437a7.59,7.59,0,0,1-7.581-7.581Zm-43.973.666h40.941v4.771a10.626,10.626,0,0,0,10.613,10.613h4.774v39.648h-61.1V657.92c.006-4.184.587-4.766,4.771-4.771Zm51.554,79.293H533.805c-4.184-.006-4.766-.587-4.771-4.771V714.023h61.1v13.648c-.006,4.184-.587,4.766-4.774,4.771Zm0,2.81" transform="translate(-523.192 -647.307)" fill="#030504"/>
      <path id="Path_36" data-name="Path 36" d="M543.928,672.129H540.9a1.516,1.516,0,0,0-1.515,1.517v12.131a1.516,1.516,0,1,0,3.032,0v-4.549h1.515a4.549,4.549,0,0,0,0-9.1Zm0,6.067h-1.515v-3.032h1.515a1.516,1.516,0,1,1,0,3.032Zm0,0" transform="translate(-493.891 -602.381)" fill="#030504"/>
      <path id="Path_37" data-name="Path 37" d="M539.61,672.129h-3.032a1.516,1.516,0,0,0-1.515,1.517v12.131a1.516,1.516,0,1,0,3.032,0v-4.549h1.515a4.549,4.549,0,1,0,0-9.1Zm0,6.067H538.1v-3.032h1.515a1.516,1.516,0,1,1,0,3.032Zm0,0" transform="translate(-501.705 -602.381)" fill="#030504"/>
      <path id="Path_38" data-name="Path 38" d="M531.724,670.026h12.13a1.516,1.516,0,0,0,1.515-1.517V656.378a1.516,1.516,0,0,0-1.515-1.517h-12.13a1.518,1.518,0,0,0-1.518,1.517v12.131a1.518,1.518,0,0,0,1.518,1.517Zm1.514-12.13h9.1v9.1h-9.1Zm0,0" transform="translate(-510.495 -633.635)" fill="#030504"/>
      <path id="Path_39" data-name="Path 39" d="M538.2,670.026H550.33a1.518,1.518,0,0,0,1.517-1.517V656.378a1.518,1.518,0,0,0-1.517-1.517H538.2a1.518,1.518,0,0,0-1.517,1.517v12.131a1.518,1.518,0,0,0,1.517,1.517Zm1.518-12.13h9.1v9.1h-9.1Zm0,0" transform="translate(-498.776 -633.635)" fill="#030504"/>
      <path id="Path_40" data-name="Path 40" d="M531.724,676.5h12.13a1.516,1.516,0,0,0,1.515-1.517V662.855a1.516,1.516,0,0,0-1.515-1.518h-12.13a1.518,1.518,0,0,0-1.518,1.518v12.128a1.518,1.518,0,0,0,1.518,1.517Zm1.514-12.13h9.1v9.1h-9.1Zm0,0" transform="translate(-510.495 -621.914)" fill="#030504"/>
      <path id="Path_41" data-name="Path 41" d="M538.2,676.5H550.33a1.518,1.518,0,0,0,1.517-1.517V662.855a1.518,1.518,0,0,0-1.517-1.518H538.2a1.518,1.518,0,0,0-1.517,1.518v12.128A1.518,1.518,0,0,0,538.2,676.5Zm1.518-12.13h9.1v9.1h-9.1Zm0,0" transform="translate(-498.776 -621.914)" fill="#030504"/>
      <path id="Path_42" data-name="Path 42" d="M541.8,685.743l-.006-.093-.008-.064-.011-.079-.017-.082-.014-.059a.889.889,0,0,0-.031-.093l-.008-.028-4.55-12.131a1.514,1.514,0,0,0-2.838,0l-4.549,12.131a1.515,1.515,0,1,0,2.838,1.062l.77-2.048H538.1l.77,2.048.006.014a1.467,1.467,0,0,0,.09.194l.017.028a1.43,1.43,0,0,0,.1.152l.025.034a1.544,1.544,0,0,0,.132.141l.036.037a1.372,1.372,0,0,0,.146.115l.011.008a1.392,1.392,0,0,0,.177.1l.033.017a1.59,1.59,0,0,0,.388.118l.053.008a1.4,1.4,0,0,0,.186.014l.014,0c.051,0,.1-.006.149-.008l.039-.006.1-.014.067-.017.067-.017.079-.025.034-.011.02-.009.09-.039.051-.025.076-.042.059-.034.056-.042.065-.048.045-.036.067-.062.039-.039.059-.065.039-.054.045-.062.042-.065.037-.056.04-.076.022-.053.034-.082.02-.056.022-.079.017-.065.014-.073.014-.082.006-.059,0-.1,0-.023v-.034Zm-7.289-4.516,1.225-3.262,1.225,3.262Zm0,0" transform="translate(-511.476 -602.381)" fill="#030504"/>
    </g>
    <rect id="Rectangle_40" data-name="Rectangle 40" width="110" height="110" transform="translate(931.667 411.667)" fill="none" opacity="0"/>
  </g>
</svg>
