<svg xmlns="http://www.w3.org/2000/svg" xmlns:xlink="http://www.w3.org/1999/xlink" width="110" height="110" viewBox="0 0 110 110">
  <defs>
    <clipPath id="clip-path">
      <rect id="Rectangle_25" data-name="Rectangle 25" width="92.812" height="86.221" fill="none"/>
    </clipPath>
  </defs>
  <g id="Group_20" data-name="Group 20" transform="translate(-858.035 -400.035)">
    <g id="Group_4" data-name="Group 4" transform="translate(865.275 412.122)">
      <g id="Group_11" data-name="Group 11" transform="translate(0 0)">
        <g id="Group_10" data-name="Group 10" clip-path="url(#clip-path)">
          <path id="Path_31" data-name="Path 31" d="M365.929,701.048V654.561a.7.7,0,0,1,.7-.7h68.5a.7.7,0,0,1,.7.7V689.9h6.5V654.561a7.2,7.2,0,0,0-7.2-7.2h-68.5a7.2,7.2,0,0,0-7.2,7.2v46.487a7.2,7.2,0,0,0,7.2,7.2h22.962v9.326h-3.619a3.249,3.249,0,0,0,0,6.5h29.818a3.249,3.249,0,0,0,0-6.5h-3.625v-9.326h11.016v-6.5H366.627a.7.7,0,0,1-.7-.7Zm0,0" transform="translate(-359.432 -647.377)" fill="#030504"/>
        </g>
      </g>
      <path id="Path_32" data-name="Path 32" d="M405.477,664.8h-16.53a4.152,4.152,0,0,0-4.149,4.146v31.307a4.152,4.152,0,0,0,4.149,4.148h16.53a4.15,4.15,0,0,0,4.146-4.148V668.941a4.15,4.15,0,0,0-4.146-4.146Zm-.727,32.055H389.671m7.538,5.341a1.865,1.865,0,0,1-1.8-1.8,1.764,1.764,0,1,1,1.8,1.8Zm0,0" transform="translate(-316.991 -618.211)" fill="#030504"/>
    </g>
    <rect id="Rectangle_38" data-name="Rectangle 38" width="110" height="110" transform="translate(858.035 400.035)" fill="none" opacity="0"/>
  </g>
</svg>
