<svg xmlns="http://www.w3.org/2000/svg" width="110" height="110" viewBox="0 0 110 110">
  <g id="Group_17" data-name="Group 17" transform="translate(-619.866 -399.866)">
    <g id="Group_2" data-name="Group 2" transform="translate(632.076 412.076)">
      <path id="Path_8" data-name="Path 8" d="M205.794,653.6H189.17V650H190.9a1.33,1.33,0,1,0,0-2.66h-5.983a1.33,1.33,0,1,0,0,2.66h1.728V653.6h-8.377V650h1.728a1.33,1.33,0,0,0,0-2.66h-6.119a1.33,1.33,0,0,0,0,2.66h1.731V653.6h-8.38V650h1.731a1.33,1.33,0,0,0,0-2.66H162.97a1.33,1.33,0,0,0,0,2.66h1.6V653.6h-8.377V650h1.728a1.33,1.33,0,1,0,0-2.66h-5.983a1.33,1.33,0,1,0,0,2.66h1.728V653.6h-8.377V650h1.728a1.33,1.33,0,0,0,0-2.66h-5.983a1.33,1.33,0,1,0,0,2.66h1.728V653.6H126a4,4,0,0,0-3.989,3.989v47.609A4,4,0,0,0,126,709.187H156.72v15.959H146.612a1.254,1.254,0,0,0-1.329,1.329v7.315a1.254,1.254,0,0,0,1.329,1.329h38.433a1.256,1.256,0,0,0,1.331-1.329v-7.315a1.256,1.256,0,0,0-1.329-1.329H174.94V709.187h30.855a4,4,0,0,0,3.989-3.992V657.586A4,4,0,0,0,205.794,653.6ZM183.85,727.805v4.655h-.133m-11.3-23.273v15.959m34.71-19.95a1.334,1.334,0,0,1-1.329,1.332H125.866a1.334,1.334,0,0,1-1.331-1.332l0-47.609a1.332,1.332,0,0,1,1.329-1.331l79.929,0a1.331,1.331,0,0,1,1.329,1.329Z" transform="translate(-122.01 -647.344)" fill="#030504"/>
      <path id="Path_9" data-name="Path 9" d="M197.6,651.994H125.786a1.256,1.256,0,0,0-1.329,1.329v40.031a1.255,1.255,0,0,0,1.329,1.328H197.6a1.256,1.256,0,0,0,1.331-1.328V653.323A1.334,1.334,0,0,0,197.6,651.994Zm-1.329,40.164H127.117v-37.5h69.155Z" transform="translate(-117.808 -639.359)" fill="#030504"/>
      <path id="Path_10" data-name="Path 10" d="M136.382,669.39H144.5l1.6,3.589h2.926l-7.049-16.092h-2.926l-7.049,16.092h2.926Zm3.989-9.176,2.927,6.649h-5.85Z" transform="translate(-104.865 -630.954)" fill="#030504"/>
      <path id="Path_11" data-name="Path 11" d="M151.194,670.852a8.123,8.123,0,0,0,2.261-5.983,7.82,7.82,0,0,0-2.261-5.853c-1.6-1.462-3.725-2.128-6.652-2.128h-5.451V672.98h5.318C147.335,672.98,149.729,672.314,151.194,670.852Zm-9.576-11.437h2.66c4.255,0,6.383,1.861,6.383,5.454a5.121,5.121,0,0,1-1.6,4.122,6.551,6.551,0,0,1-4.522,1.329h-3.057v-10.9Z" transform="translate(-92.677 -630.954)" fill="#030504"/>
    </g>
    <rect id="Rectangle_35" data-name="Rectangle 35" width="110" height="110" transform="translate(619.866 399.866)" fill="none" opacity="0"/>
  </g>
</svg>
