<svg xmlns="http://www.w3.org/2000/svg" width="512" height="512" viewBox="0 0 512 512">
  <g id="Group_2" data-name="Group 2" transform="translate(-364 -43)">
    <rect id="Rectangle_1" data-name="Rectangle 1" width="512" height="512" transform="translate(364 43)" fill="none" opacity="0"/>
    <g id="game-controller" transform="translate(364 43.245)">
      <path id="Path_1" data-name="Path 1" d="M156.007,104.762h21v83.5a17.521,17.521,0,0,0,17.5,17.5h123a17.521,17.521,0,0,0,17.5-17.5v-83.5h67.877a61.039,61.039,0,0,1,61.431,50.559L486.4,280.565a7.5,7.5,0,0,0,14.771-2.6L479.086,152.716a75.865,75.865,0,0,0-74.906-62.93c-63.233-.068-184.386,0-248.173-.023a7.5,7.5,0,1,0,0,15Zm164,0v83.5a2.5,2.5,0,0,1-2.5,2.5h-123a2.5,2.5,0,0,1-2.5-2.5v-83.5Z" transform="translate(-0.014)"/>
      <path id="Path_2" data-name="Path 2" d="M510.836,332.484l-3.476-19.678a7.5,7.5,0,0,0-14.771,2.6l3.476,19.677a61.152,61.152,0,0,1-119.34,26.237,47.44,47.44,0,1,0-67.31-53.892H201.586a47.561,47.561,0,0,0-59.539-34.013,7.489,7.489,0,1,0,4.242,14.365A32.451,32.451,0,1,1,123,318.912a32.236,32.236,0,0,1,2.224-11.826,7.5,7.5,0,0,0-13.967-5.463,47.412,47.412,0,0,0,23.9,60.138A61.157,61.157,0,0,1,15.937,335.084L47.7,155.22a61.284,61.284,0,0,1,59.478-50.482H121a7.489,7.489,0,1,0,0-14.977H106.5a76.336,76.336,0,0,0-73.577,62.857L1.165,332.485a76.141,76.141,0,0,0,61.776,88.093,77.163,77.163,0,0,0,13.388,1.176,76.2,76.2,0,0,0,73.242-55.8,47.4,47.4,0,0,0,53.288-43.549H308.141A47.475,47.475,0,0,0,362.4,365.834a76.191,76.191,0,0,0,73.272,55.921,77.163,77.163,0,0,0,13.388-1.176,76.142,76.142,0,0,0,61.777-88.094ZM323,318.912a32.5,32.5,0,1,1,32.5,32.45A32.511,32.511,0,0,1,323,318.912Z" transform="translate(0)"/>
      <path id="Path_3" data-name="Path 3" d="M89.507,163.262v15h-14a25,25,0,0,0,0,50h14v15a25,25,0,1,0,50,0v-15h14a25,25,0,0,0,0-50h-14v-15a25,25,0,1,0-50,0Zm35,0v22.5a7.5,7.5,0,0,0,7.5,7.5h21.5a10,10,0,0,1,0,20h-21.5a7.5,7.5,0,0,0-7.5,7.5v22.5a10,10,0,0,1-20,0v-22.5a7.5,7.5,0,0,0-7.5-7.5h-21.5a10,10,0,0,1,0-20h21.5a7.5,7.5,0,0,0,7.5-7.5v-22.5a10,10,0,0,1,20,0Z" transform="translate(-9)"/>
      <path id="Path_4" data-name="Path 4" d="M399.007,271.262a22.5,22.5,0,1,0-22.5-22.5A22.526,22.526,0,0,0,399.007,271.262Zm0-30a7.5,7.5,0,1,1-7.5,7.5A7.508,7.508,0,0,1,399.007,241.262Z" transform="translate(6.988 -4.234)"/>
      <path id="Path_5" data-name="Path 5" d="M399.007,180.262a22.5,22.5,0,1,0-22.5-22.5A22.526,22.526,0,0,0,399.007,180.262Zm0-30a7.5,7.5,0,1,1-7.5,7.5A7.508,7.508,0,0,1,399.007,150.262Z" transform="translate(6.988 4)"/>
      <path id="Path_6" data-name="Path 6" d="M359.007,180.262a22.5,22.5,0,1,0,22.5,22.5A22.526,22.526,0,0,0,359.007,180.262Zm0,30a7.5,7.5,0,1,1,7.5-7.5A7.508,7.508,0,0,1,359.007,210.262Z" transform="translate(11.989 -0.16)"/>
      <path id="Path_8" data-name="Path 8" d="M359.007,180.262a22.5,22.5,0,1,0,22.5,22.5A22.526,22.526,0,0,0,359.007,180.262Zm0,30a7.5,7.5,0,1,1,7.5-7.5A7.508,7.508,0,0,1,359.007,210.262Z" transform="translate(-103.007 71.713)"/>
      <path id="Path_7" data-name="Path 7" d="M439.007,225.262a22.5,22.5,0,1,0-22.5-22.5A22.526,22.526,0,0,0,439.007,225.262Zm0-30a7.5,7.5,0,1,1-7.5,7.5A7.508,7.508,0,0,1,439.007,195.262Z" transform="translate(6.986 -0.16)"/>
    </g>
  </g>
</svg>
