<svg xmlns="http://www.w3.org/2000/svg" width="110" height="110" viewBox="0 0 110 110">
  <g id="Group_16" data-name="Group 16" transform="translate(-540.903 -403.903)">
    <g id="Group_1" data-name="Group 1" transform="translate(543.468 420.961)">
      <path id="Path_1" data-name="Path 1" d="M63.663,669.005a1.952,1.952,0,0,0-2.148,1.736l-.988,9.347-4.834,6.285H49.176l-4.533-7.04-.7-8.544a1.953,1.953,0,1,0-3.892.317l.736,9.032a1.95,1.95,0,0,0,.3.9c5.929,9.206,5.51,8.625,5.841,8.9v4.08h11.21v-4.422l5.816-7.56a1.942,1.942,0,0,0,.393-.986l1.046-9.893A1.952,1.952,0,0,0,63.663,669.005Z" transform="translate(-31.589 -618.524)" fill="#030504"/>
      <path id="Path_2" data-name="Path 2" d="M77.156,669.005a1.954,1.954,0,0,0-2.148,1.736l-.988,9.347-4.834,6.285H61.6l-4.279-4.091,4.29-7.394a1.953,1.953,0,1,0-3.379-1.96c-.687,1.185-4.355,7.51-5.061,8.725a1.94,1.94,0,0,0-.229,1.333c.15.824,1.5,1.935,7.489,7.646v3.381H71.637v-4.42l5.816-7.56a1.966,1.966,0,0,0,.4-.986l1.046-9.893A1.953,1.953,0,0,0,77.156,669.005Z" transform="translate(-14.688 -618.524)" fill="#030504"/>
      <circle id="Ellipse_1" data-name="Ellipse 1" cx="4.446" cy="4.446" r="4.446" transform="translate(16.527 57.39)" fill="#030504"/>
      <path id="Path_3" data-name="Path 3" d="M90.93,669.005a1.952,1.952,0,0,0-2.148,1.736l-.988,9.347-4.834,6.285H76.443l-4.533-7.04-.7-8.544a1.953,1.953,0,1,0-3.892.317l.736,9.032a1.949,1.949,0,0,0,.3.9c5.929,9.206,5.51,8.625,5.841,8.9v4.08h11.21v-4.422l5.816-7.56a1.942,1.942,0,0,0,.393-.986l1.046-9.893A1.952,1.952,0,0,0,90.93,669.005Z" transform="translate(4.245 -618.524)" fill="#030504"/>
      <circle id="Ellipse_2" data-name="Ellipse 2" cx="4.446" cy="4.446" r="4.446" transform="translate(79.628 57.39)" fill="#030504"/>
      <circle id="Ellipse_3" data-name="Ellipse 3" cx="4.446" cy="4.446" r="4.446" transform="translate(46.923 57.516)" fill="#030504"/>
      <path id="Path_4" data-name="Path 4" d="M56.914,661.038v12.2a2.283,2.283,0,1,0,4.566,0V662.35A8.3,8.3,0,0,1,56.914,661.038Z" transform="translate(-9.423 -628.98)" fill="#030504"/>
      <path id="Path_5" data-name="Path 5" d="M65.877,664.217l-2.86-5.2a6.491,6.491,0,0,1-2.573,4.8l1.176,2.14.474,10.058a2.283,2.283,0,0,0,4.561-.215l-.5-10.585A2.293,2.293,0,0,0,65.877,664.217Z" transform="translate(-4.785 -631.643)" fill="#030504"/>
      <circle id="Ellipse_4" data-name="Ellipse 4" cx="3.943" cy="3.943" r="3.943" transform="translate(48.605)" fill="#030504"/>
      <path id="Path_6" data-name="Path 6" d="M69.832,667.009c2.4-.384,3.6-3.11,2.178-5.952l5.88-4.605.375.477h0a1.01,1.01,0,0,0,1.495.1h0a1.011,1.011,0,0,0,.095-1.351l-.373-.477.317-.25.373.477a1.011,1.011,0,1,0,1.592-1.245l-.373-.477c.319-.252.116-.092.2-.157a1.264,1.264,0,0,0,.2-1.763l0,0a1.264,1.264,0,0,0-1.761-.215l-.009,0-.185.146-.373-.477,0,0a1.011,1.011,0,0,0-1.414-.167h0a1.012,1.012,0,0,0-.174,1.419l.375.477-.319.25-.373-.477v0a1.011,1.011,0,0,0-1.592,1.247l.375.477-5.88,4.607-.007,0c-2.323-1.974-5.309-1.632-6.295.694a2.769,2.769,0,0,1-1.113,1.287l2.166,1.648a1.649,1.649,0,1,1,2.067,2.569,1.63,1.63,0,0,1-1.141.343,3.735,3.735,0,0,1-3.087,3.249l.384.491a1.01,1.01,0,0,1-1.59,1.247l-2.217-2.83-3.865-2.728a7.767,7.767,0,0,0,2.548,6.885c2.071,1.919,5.267,2.789,7.477,1.058a4.718,4.718,0,0,0,1.726-3.434A2.778,2.778,0,0,1,69.832,667.009Z" transform="translate(-11.091 -642.361)" fill="#030504"/>
      <path id="Path_7" data-name="Path 7" d="M64.92,665.9a1.9,1.9,0,0,0-.456-2.652l-5.725-4.041c.025-2.964.014-1.733.03-3.575h0a.377.377,0,1,1,.754,0v1.891l2.328,1.643c.224.023.639.083.69.083a.941.941,0,0,0,.87-.579,5.019,5.019,0,0,1,1.537-2.018,5.138,5.138,0,0,1,3.207-1.078,6.047,6.047,0,0,1,1.446.178v-.016a.392.392,0,0,1,.75-.157,1.015,1.015,0,0,1,.088.437,7.117,7.117,0,0,1,.884.414l2.6-2.041a4.516,4.516,0,0,0-4.226-3.258H59.465a4.509,4.509,0,0,0-4.5,4.473c-.014,1.534-.025,3.025-.037,4.54h0a1.9,1.9,0,0,0,.805,1.595l6.535,4.617A1.9,1.9,0,0,0,64.92,665.9Z" transform="translate(-12.034 -641.992)" fill="#030504"/>
      <g id="Group_3" data-name="Group 3" transform="translate(21.681 4.83)">
        <line id="Line_1" data-name="Line 1" y2="36.878" transform="translate(12.356 5.215)" fill="#fff" stroke="#fff" stroke-miterlimit="10" stroke-width="0.029"/>
        <line id="Line_2" data-name="Line 2" x1="18.514" y2="16.598" transform="translate(0 1.34)" fill="#fff" stroke="#fff" stroke-miterlimit="10" stroke-width="0.029"/>
        <rect id="Rectangle_16" data-name="Rectangle 16" width="4.904" height="1.247" rx="0.269" transform="translate(15.516 0.794)" fill="#030504"/>
        <circle id="Ellipse_5" data-name="Ellipse 5" cx="1.417" cy="1.417" r="1.417" transform="translate(19.543)" fill="#030504"/>
      </g>
      <rect id="Rectangle_17" data-name="Rectangle 17" width="102.69" height="2.267" transform="translate(0 46.381)" fill="#030504"/>
    </g>
    <g id="Rectangle_33" data-name="Rectangle 33" transform="translate(540.903 403.903)" fill="none" stroke="#707070" stroke-width="1" opacity="0">
      <rect width="110" height="110" stroke="none"/>
      <rect x="0.5" y="0.5" width="109" height="109" fill="none"/>
    </g>
  </g>
</svg>
