<?xml version="1.0" encoding="utf-8"?>
<!-- Generator: Adobe Illustrator 25.2.3, SVG Export Plug-In . SVG Version: 6.00 Build 0)  -->
<svg version="1.1" id="AM_logo" xmlns="http://www.w3.org/2000/svg" xmlns:xlink="http://www.w3.org/1999/xlink" x="0px" y="0px"
	 viewBox="0 0 500 500" style="enable-background:new 0 0 500 500;" xml:space="preserve">
<style type="text/css">
	.st0{fill:#E4E4E4;}
</style>
<path class="st0" d="M9,266c0-0.5,0.5-0.8,0.9-0.6c1.2,0.6,1.5,1.9,2,3c3.2,7.2,6.8,14.1,12.3,20.1C36.4,301.8,52.1,309,69.1,314
	c15,4.5,30.7,6.4,46.4,6.3c5.7-0.1,5.3,0.9,3.9-5.1c-3.4-15.1-7.1-30.1-9.1-45.5c-0.7-5.8-1.5-11.5-2.4-17.2
	c-0.3-1.9-0.6-3.3-3.3-3.6c-6-0.6-11.9-1.7-17.8-2.7C65,242.4,46.2,232.9,32,215.6c-6.3-7.8-9.9-16.8-10.7-26.8
	c-0.9-12.1,1.5-23.8,6.2-35c1.4-3.3,2.8-6.5,5.2-9.3c0.4,0.9,0.5,1.6,0.4,2.3c0,0.6-0.2,1.6-0.3,2.1c-1.7,7.5-1.9,15-1,22.7
	C33.6,186,41,197,52.2,205.7c7.9,6.2,17.2,9.6,26.7,12.3c8,2.2,16.2,3.2,24.5,3.3c1.6,0,2.6-0.3,2.6-2.3c-0.2-4.7,0.5-9.3,0.6-13.9
	c0.2-5.3,0.4-10.6,1-15.9c1.1-10,2.6-19.9,4.7-29.7c0.4-1.8-0.2-2.7-2.2-3c-4.5-0.8-9.1-1.9-13.6-3c-9.3-2.2-17.6-6.2-24.1-13.5
	c-5.8-6.5-8.3-14.3-7.9-22.6c0.5-11.9,5.2-22.6,11.6-32.5c6.2-9.7,14.6-17.3,23.1-24.8c11.4-10,23.8-18.5,37.2-25.6
	C162,20.9,189.3,12.7,218,8.6c20.7-2.7,36.2-0.6,37-0.5c6.8,0.6,13.2,2.7,19.6,5.2C280,15.4,285,18.7,289,23
	c8.6,9.4,10.9,20.5,8,32.7c-0.9,3.9-2.4,7.7-3.6,11.6c-0.5,1.6-0.6,2.8,1.2,3.7c16.8,8.4,33.5,16.9,50.2,25.5
	c1.7,0.9,2.5,0.4,3.1-1.2c0.9-2.3,1.9-4.5,2.8-6.8c3.9-10.2,5.6-20.7,3.6-31.6c-3.4-18.4-14.2-30.8-31-38.3
	c-1.1-0.5-2.3-0.9-2.8-2.4c0.6-0.1,1-0.2,1.4-0.2c0.5,0,1,0,1.5,0.1c17.6,4.4,33,12.4,44.5,27.1c9.9,12.7,14,28.9,11.4,44.8
	c-1.5,9-4.3,17.7-7.8,26.1c-0.6,1.5-0.6,2.3,0.7,3.5c5.4,4.6,10.8,9.2,15.9,14.1c10.9,10.4,21.3,21.4,30.5,33.4
	c1.6,2.1,2.2,1.9,3.3-0.4c2.9-5.8,5.3-11.7,7.6-17.7c5.6-14.7,7.5-29.7,4.7-45.3c-0.9-5-2.4-9.8-4.4-14.4c-0.4-0.9-0.8-2,0.2-2.7
	c0.9-0.6,1.6,0.4,2.2,1c4.5,3.6,8,8.1,11.1,12.9c9.6,15.1,11.2,31.8,9.1,49c-1.7,14-6.1,27.3-12.6,39.8c-1.9,3.6-1.4,6.4,0.5,9.6
	c7.6,12.5,14.1,25.6,19.4,39.3c2.2,5.6,4.1,11.2,6.4,17.2c6.4-10.8,10.7-21.8,13.5-33.5c2.8-11.5,3.8-23.4,5.9-35.8
	c0.3-1.6,1.2,1.5,1.3,2c1.3,5.1,2.6,10.3,3.1,15.6c0.1,0.9,1,12,0,21c-0.2,2.1-0.4,4.1-0.7,6.2c-2.6,16.5-7.4,32.3-15.1,47.1
	c-1,2-1.4,4-1.5,6.3c-0.3,5.3,1.3,10.4,1.3,15.6c0,8.7,0,17.4,0,26.1c-0.1,10.3-0.7,20.5-4,30.3c-0.4,1.1-0.2,3.1-1.7,2.9
	c-1.2-0.2-1.3-2-1.3-3.3c0-0.9,0-1.8,0-2.7c-0.2-5.9,0-11.8-0.5-17.7c-0.9-10.9-2-21.7-4.2-32.5c-0.2-1,0-2.3-1-2.6
	c-1-0.3-1.5,1-2.1,1.8c-7.9,10.8-16.6,21.1-26.1,30.5c-7.8,7.8-16.1,15.1-24.9,21.7c-1.9,1.4-2.5,2.9-1.8,5.4
	c4.8,16.5,9.1,33,12.5,49.9c0.2,1-0.1,2.6,1,2.9s2-0.9,2.9-1.7c7-6.2,13.5-13,20.2-19.6c4.4-4.4,8.8-8.8,13.2-13.2
	c0.7-0.7,1.5-1.5,2.5-0.6c0.9,0.8,0.4,1.6-0.1,2.4c-7.2,11.9-15.1,23.1-24.5,33.3c-8.7,9.4-18,18.3-27.9,26.5
	c-13.6,11.2-28.2,20.9-43.8,29c-12.2,6.3-24.9,11.4-38.1,15.4c-15.8,4.8-31.8,8-48.2,9.6c-13.4,0.7-20.1,1.1-43.7,0.5
	c-5.2-0.2-10.4-0.7-15.6-1.4c-12.6-1.7-24.9-5.1-37-8.9c-4.3-1.4-8.6-2.9-12.9-4.4c-0.9-0.3-2.1-0.9-1.7-2c0.3-1,1.5-0.4,2.4-0.4
	c0.3,0,0.6,0.2,0.9,0.2c14.4,2.7,28.9,4.6,43.6,5c2,0,29.9,0.9,42.3-1.6c-2.2-1.3-4.1-2.1-6.2-3c-2.1-0.9-4.2-1.8-6.2-2.8
	c-18.4-9.1-35.4-20.3-50.2-34.6c-2-1.9-3.8-4.3-7.1-4.3c-8.1-0.1-16.2,0-24.2-0.4c-7.8-0.4-15.5-0.8-23.2-2.1
	c-24.1-3.9-46.4-12.5-66.5-26.5c-8.1-5.6-15-12.5-20.8-20.4c-0.6-0.8-1.9-1.9-0.8-2.8c0.9-0.8,1.9,0.6,2.7,1.2
	c5.4,4.2,11.1,7.9,17.1,11c15.4,7.8,31.8,12.7,48.8,15.8c15.1,2.8,30.4,4,45.8,4c1.5,0,3.6,0,4.1-0.9c0.7-1.3-1-2.5-1.9-3.7
	c-6.1-8-11.6-16.4-16.7-25.1c-6.4-10.8-12.1-22-16.8-33.6c-0.6-1.6-1.5-2.8-3.3-3.1c-2.3-0.3-4.7-0.5-7-0.7
	c-5.6-0.4-11.2-0.6-16.8-1.3c-11.7-1.5-23.1-4.1-34.1-8.3c-16.6-6.2-32-14.3-44.1-27.7c-7.6-8.3-13-17.8-15.9-28.7
	C9.4,274,9.2,270.6,9,266z M203.1,57c6.8-0.2,13.4-0.3,20.2,0.3c6.5,0.5,12.9,1.2,19.3,2.2c7.7,1.2,15.3,2.9,22.8,4.8
	c1.2,0.3,2.5,0.8,3.3-0.8c4.9-10.5,6.2-21-0.6-31.3c-5.9-8.7-15-12.2-24.7-14.5c-12.7-3.1-25.7-2.1-38.5-0.5
	c-15.6,1.9-30.4,6.8-44.8,12.8c-22.7,9.5-43,22.8-60.2,40.5c-9.4,9.7-15.9,20.8-18.2,34.2c-1.9,10.7,3.4,20.7,11.9,26.6
	c6,4.2,13,6,20.1,7.4c2.2,0.4,3.4-0.5,4.1-2.4c0.8-2.1,1.5-4.3,2.3-6.4c5.4-14.7,12.2-28.7,20.8-41.8c0.9-1.3,1.7-2.6,3.3-3.1
	c0.7,0.8,0.2,1.5,0,2.1c-3.4,9.7-6.8,19.4-10.2,29.1c-2.4,6.9-4.9,13.8-6.6,20.9c-0.4,1.9,0,2.4,1.9,2.4c2.6,0,5.1-0.5,7.6-0.6
	c10.1-0.5,19.9-2.4,29.6-4.9c2.8-0.7,4.5-2.4,4.1-5.6c-0.7-7.2-1.5-14.5-2.1-21.7c-0.6-6.6-1-13.1-1.4-19.7
	c-0.1-1.2,0.3-2.8,1.5-2.9s1.1,1.6,1.4,2.5c3.4,13.3,6.9,26.5,10.2,39.8c0.6,2.5,1.4,3.1,3.9,2.1c13.2-5.1,26-11,38-18.4
	c2-1.2,2.6-2,0.6-3.8c-5.9-5.4-11.7-10.9-17.6-16.3c-5.1-4.7-10.3-9.4-15.5-14.1c-0.6-0.6-1.9-1-1.4-2c0.5-0.9,1.6-0.2,2.4,0.1
	c0.6,0.2,1.1,0.4,1.6,0.7c12.7,8.3,25.9,15.9,38.1,25c2.8,2.1,4.6,1.9,7.1-0.1c8.9-7.1,16.9-15.1,23.9-24c1.4-1.8,1.1-2.8-1.2-3.5
	c-9.6-3.2-19.3-6.2-29.2-8.7C221.9,60.9,212.5,58.8,203.1,57z M358,276c-0.4,0.2-1.1,0.5-1.6,0.9c-7.1,4.3-14.1,8.7-21.3,12.7
	c-21.4,12-43.5,22.3-66.7,30.4c-3.7,1.3-3.8,1.5-1.8,4.9c10.5,18,21,36,31.3,54c1.5,2.6,2.7,2.9,5.3,1.8c17.4-7.1,34.5-14.7,51-23.6
	c10.5-5.7,20.8-11.6,30.7-18.3c3.3-2.2,3.5-3,1.8-6.6c-9-18.4-18.1-36.7-27.1-55C359.2,276.6,359.1,275.8,358,276z M249,292.4
	c0.7-0.2,1.5-0.5,2.3-0.7c15.6-5.4,30.7-11.9,45.6-19c13.8-6.6,27-14.4,40.3-21.9c3.7-2.1,3.8-2,1.3-5.5
	c-12.4-17.6-24.8-35.1-37.1-52.8c-1.4-2-2.5-1.3-3.9-0.5c-4.9,2.9-9.9,5.8-14.8,8.6c-18.9,10.9-38.8,19.5-59.3,26.7
	c-6.1,2.2-6.1,2-3.3,7.9c4.9,10.2,9.7,20.5,14.5,30.8c3.8,8.1,7.7,16.3,11.5,24.4C246.8,291.4,247.3,292.6,249,292.4z M186.9,408.1
	c8.7-0.8,17.4-2.1,26-3.7c21-3.8,41.5-9.2,61.8-15.9c2.4-0.8,2.6-1.6,1.3-3.7c-11.4-18.7-22.8-37.4-34.1-56.2
	c-0.9-1.6-1.8-1.7-3.3-1.2c-5.6,1.7-11.2,3.3-16.8,4.7c-24.3,6.2-49,9.6-73.9,11.2c-1.9,0.1-2.5,0.4-1.6,2.4
	c3.5,7.8,7.3,15.3,11.4,22.8c7.4,13.2,15.8,25.7,25.2,37.6C183.8,407.4,185.1,408.2,186.9,408.1z M141.8,313.8
	c1.4-0.2,2.7-0.5,4-0.6c8.6-0.2,17.1-1.4,25.5-2.6c18.7-2.7,37.1-7.1,55.2-12.5c4.2-1.3,4.2-1.2,2.3-5.4
	c-3.6-8.1-7.1-16.3-10.6-24.5c-4.6-10.8-9.3-21.6-13.9-32.4c-1-2.4-2.5-3.2-5.1-2.4c-6.1,1.7-12.2,3.2-18.3,4.6
	c-10.2,2.4-20.4,4-30.8,5c-7.8,0.7-15.6,1.6-23.5,1.9c-1.7,0.1-2.4,0.7-2.2,2.8c1.1,8.9,2.6,17.7,4.4,26.5c2.6,12.5,6,24.7,9.9,36.8
	C139.2,312.8,140,314,141.8,313.8z M405,180.3c-0.3-0.5-0.6-1.4-1.2-2.1c-2.6-3.3-5.4-6.6-8-9.9c-10.9-13.9-22.1-27.5-34.9-39.7
	c-2-1.9-2.7-1.6-4.1,0.5c-6.5,9.8-13.9,18.9-22,27.4c-6.5,6.9-13.6,13.2-21,19.1c-2,1.6-2,2.8-0.6,4.9c12,18,23.9,36.1,35.6,54.2
	c1.7,2.7,2.8,2,4.7,0.5c11.4-9.1,22.1-19,32-29.8c6.5-7,12.6-14.4,18.1-22.2C404.2,182.4,404.8,181.6,405,180.3z M452.6,269.2
	c-0.1-1-0.2-2-0.4-2.9c-1.1-4.7-3.1-9.2-4.8-13.7c-5-13.4-10.9-26.5-17.5-39.2c-3.1-5.9-3.2-5.8-7-0.3c-8.4,12.1-18,23.2-28.4,33.6
	c-6.9,6.9-14,13.6-21.9,19.4c-1.2,0.9-1.1,1.5-0.6,2.7c8.3,19.6,16.5,39.3,24.7,59c1.3,3,1.5,3.2,4,1.1c4.8-4,9.7-8.1,14.3-12.4
	c11.3-10.7,21.9-22.2,31.5-34.5C449.5,278.3,452.6,274.5,452.6,269.2z M405,416.9c-0.1-0.3-0.2-0.7-0.3-1.1
	c-5.1-15.8-10.1-31.6-15.2-47.4c-1.1-3.5-1.6-3.5-4.7-1.4c-13.3,9.2-27.2,17.4-41.6,24.9c-10.7,5.5-21.6,10.6-32.8,15
	c-2.1,0.8-3.2,1.3-1.2,3.8c10.9,13.9,21.6,27.9,32.3,41.9c1.4,1.8,2.4,2,4.4,1.1c8.3-3.8,16.4-7.9,24.3-12.3
	c11.4-6.3,22.3-13.4,32.9-21C404.2,419.6,404.9,418.4,405,416.9z M275.9,471.8c0.9-0.1,1.5,0,2.1-0.1c20-4.2,40.2-8.2,59.5-15.1
	c1.2-0.4,2.9-0.3,3.3-1.6c0.4-1.5-1.4-1.9-2.3-2.7c-0.6-0.5-1.1-1.1-1.7-1.7c-10.9-10.7-22-21.3-31.4-33.5c-3.9-5.1-7.4-5.2-13-3.7
	c-26.5,7-53,14.3-80.5,16.8c-1.5,0.1-2.1,0.8-0.8,2c2.1,2,4.1,4,6.3,5.8c14.7,12.5,31,22.4,48.6,30.2
	C269.3,469.7,272.5,471.4,275.9,471.8z M243.3,122.8c-0.4,0.3-1.1,0.6-1.8,1.1c-14.6,9.2-30,16.7-46.3,22.2c-2.3,0.8-2.7,1.6-1.9,4
	c5.7,16.6,11.3,33.3,16.8,50c1,2.9,2.4,3.1,4.8,2.1c22.5-8.9,43.9-19.8,63.9-33.4c2.8-1.9,2.8-2.3,0.5-4.9
	c-5-5.8-9.9-11.7-14.9-17.6c-6.4-7.5-12.8-15-19.2-22.5C244.8,123.1,244.4,122.6,243.3,122.8z M124,204.5c0,2.4,0.2,5.4,0,8.4
	c-0.2,2.7,1.1,3.2,3.3,3c5.3-0.6,10.5-1.2,15.8-1.7c15.9-1.7,31.4-5.3,46.7-9.8c1.8-0.5,2.3-1.2,1.8-3.1
	c-4.6-16.8-9.1-33.7-13.5-50.6c-0.6-2.5-1.5-2.9-3.8-2.3c-13.9,3.6-27.9,5.7-42.3,5.9c-3.2,0-4.3,1.3-4.5,4.5
	c-0.3,4.7-0.7,9.4-1.3,14.1C125.1,183.2,123.8,193.5,124,204.5z M285.6,79.4c-1.2,0.1-1.6,0.3-2.6,1.6
	c-8.4,10.7-17.8,20.3-28.9,28.2c-2,1.4-2.1,2.5-0.3,4.3c12.5,12.2,24.9,24.5,37.4,36.7c0.1,0.1,0.1,0.1,0.2,0.2
	c1,1.3,1.8,1.1,3.2,0.1c11.7-8.6,22.4-18.4,32-29.2c3.1-3.5,5.8-7.2,8.7-10.8c1.2-1.4,1.2-2.4-0.5-3.5
	c-13.6-9.4-27.8-17.6-42.7-24.8C289.9,81.1,287.6,80.2,285.6,79.4z"/>
</svg>
