<svg xmlns="http://www.w3.org/2000/svg" width="110" height="110" viewBox="0 0 110 110">
  <g id="Group_18" data-name="Group 18" transform="translate(-701.306 -400.306)">
    <g id="Group_5" data-name="Group 5" transform="translate(705.87 414.614)">
      <path id="Path_33" data-name="Path 33" d="M244.407,663.511c-3.766.036-7.517.185-11.161.448a128.061,128.061,0,0,0-19.872,2.845v-7.115h1.9a9.523,9.523,0,0,0,9.52-9.52,1.9,1.9,0,0,0-1.9-1.9H211.468a1.9,1.9,0,0,0-1.9,1.9v17.641c-7.958,2.365-11.994,5.4-11.994,9.015V711.1c0,2.894,2.592,5.425,7.7,7.52,8.209,3.367,20.571,4.886,29.5,5.447,3.778.239,7.663.36,11.544.36s7.763-.122,11.541-.36c8.828-.555,21.261-2.071,29.5-5.447,5.111-2.095,7.7-4.626,7.7-7.52V676.826c0-3.62-4.036-6.65-11.994-9.015v-8.121h1.9a9.523,9.523,0,0,0,9.522-9.52,1.9,1.9,0,0,0-1.9-1.9H281.153a1.9,1.9,0,0,0-1.9,1.9V666.8a128.147,128.147,0,0,0-19.872-2.845c-3.647-.263-7.4-.412-11.164-.448m43.03,36.161c0,.823-1.41,2.358-5.381,3.975a68.7,68.7,0,0,1-14.231,3.634v-7.539a72.852,72.852,0,0,0,15.719-3.975,23.452,23.452,0,0,0,3.893-1.985ZM246.312,713a1.9,1.9,0,0,0-1.9,1.9v5.7c-2.558-.027-5.106-.107-7.615-.239V711.1c0-.1,0-.2,0-.3a9.521,9.521,0,0,1,19.032,0c0,.1,0,.2,0,.3v9.269c-2.511.131-5.059.212-7.617.239v-5.7A1.9,1.9,0,0,0,246.312,713Zm-13.987-45.15,4.85,7.274c-4.84.217-9.373.609-13.3,1.15l-8.448-6.034A125.751,125.751,0,0,1,232.325,667.85Zm13.987-.543c3.225,0,6.443.083,9.6.251l-4.945,7.417c-3.074-.071-6.246-.071-9.317,0l-4.943-7.417C239.869,667.389,243.084,667.306,246.312,667.306Zm30.883,2.933-8.45,6.036c-3.924-.543-8.457-.935-13.3-1.152l4.85-7.274A125.751,125.751,0,0,1,277.194,670.239Zm-36.49,8.567c3.676-.1,7.537-.1,11.215,0a149.157,149.157,0,0,1,17.1,1.354c6.124.9,8.669,1.9,9.673,2.443a13.025,13.025,0,0,1-2.346.989c-2.161.453-4.477.857-6.891,1.2a173.582,173.582,0,0,1-46.278,0c-2.567-.365-5-.8-7.249-1.277a1.966,1.966,0,0,0-.351-.173,11.56,11.56,0,0,1-1.654-.745C218.976,679.849,234.885,678.965,240.7,678.806Zm18.72,29.9a13.291,13.291,0,0,0-3.69-7.04c-.107-.107-.219-.212-.331-.317,4.3-.212,8.479-.573,12.423-1.074v7.566C265.141,708.2,262.328,708.491,259.424,708.71Zm-26.228,0c-2.9-.219-5.717-.509-8.4-.865v-7.566c3.944.5,8.129.862,12.426,1.074-.063.061-.132.119-.195.182A13.246,13.246,0,0,0,233.2,708.71Zm34.629-19.853v7.585a167.167,167.167,0,0,1-19.612,1.315v-7.617A171.937,171.937,0,0,0,267.826,688.857Zm-23.419,1.284v7.617a167.167,167.167,0,0,1-19.612-1.315v-7.585A172.011,172.011,0,0,0,244.407,690.141Zm-29.933-3.04c2.032.451,4.219.857,6.514,1.218v7.568c-14.24-2.3-19.612-5.851-19.612-7.639v-5.875Q205.6,685.124,214.474,687.1Zm-13.1,6.682a23.451,23.451,0,0,0,3.893,1.985,72.89,72.89,0,0,0,15.719,3.975v7.539a68.737,68.737,0,0,1-14.231-3.634c-3.971-1.617-5.381-3.152-5.381-3.975Zm23.419,17.9c2.626.339,5.364.616,8.187.828v7.61c-2.823-.212-5.566-.49-8.187-.833Zm34.843.828c2.823-.212,5.561-.49,8.187-.828v7.6c-2.621.343-5.361.621-8.187.833Zm31.606-24.264c0,1.788-5.371,5.342-19.612,7.639v-7.568c5.841-.913,14.684-2.733,19.612-5.941Zm0-11.422c0,.979-1.9,3.045-8.343,5.084-.453-1.927-2.745-2.947-4.485-3.559a35.653,35.653,0,0,0-4.38-1.177l7.98-5.7C289.271,673.635,291.245,675.837,291.245,676.826Zm-8.187-24.751h7.291a5.725,5.725,0,0,1-5.388,3.808h-1.9Zm-69.684,0h7.291a5.725,5.725,0,0,1-5.388,3.808h-1.9Zm-2.77,19.4,7.98,5.7a34.909,34.909,0,0,0-4.5,1.216c-1.688.6-3.919,1.613-4.372,3.513-6.45-2.046-8.331-4.114-8.331-5.076C201.376,675.837,203.352,673.635,210.6,671.474ZM201.376,711.1v-5.924a23.888,23.888,0,0,0,3.944,2,73.832,73.832,0,0,0,15.668,3.963v7.6C206.748,716.436,201.376,712.882,201.376,711.1Zm70.257,7.639v-7.6a73.981,73.981,0,0,0,15.668-3.963,23.888,23.888,0,0,0,3.944-2V711.1C291.245,712.882,285.873,716.436,271.633,718.736Z" transform="translate(-197.569 -646.306)" fill="#030504"/>
      <rect id="Rectangle_26" data-name="Rectangle 26" width="29.994" height="13.25" transform="translate(37.94 0)" fill="#030504" stroke="#030504" stroke-miterlimit="10" stroke-width="1"/>
      <rect id="Rectangle_27" data-name="Rectangle 27" width="0.983" height="5.14" transform="translate(39.607 14.134)" fill="#030504" stroke="#030504" stroke-miterlimit="10" stroke-width="1"/>
      <rect id="Rectangle_28" data-name="Rectangle 28" width="0.983" height="5.14" transform="translate(65.243 13.25)" fill="#030504" stroke="#030504" stroke-miterlimit="10" stroke-width="1"/>
    </g>
    <rect id="Rectangle_36" data-name="Rectangle 36" width="110" height="110" transform="translate(701.306 400.306)" fill="none" opacity="0"/>
  </g>
</svg>
