<svg xmlns="http://www.w3.org/2000/svg" width="165" height="110" viewBox="0 0 165 110">
  <g id="Group_19" data-name="Group 19" transform="translate(-718.963 -404.231)">
    <g id="Group_3" data-name="Group 3" transform="translate(720.233 418.722)">
      <g id="Group_6" data-name="Group 6" transform="translate(101.538 7.553)">
        <path id="Path_12" data-name="Path 12" d="M313.514,666.468a3.967,3.967,0,1,0,3.964,3.967,3.971,3.971,0,0,0-3.964-3.967Zm0,5.95a1.984,1.984,0,1,1,1.981-1.983,1.985,1.985,0,0,1-1.981,1.983Zm0,0" transform="translate(-300.621 -626.803)" fill="#030504"/>
        <path id="Path_13" data-name="Path 13" d="M327.418,666.468a3.967,3.967,0,1,0,3.965,3.967,3.971,3.971,0,0,0-3.965-3.967Zm0,5.95a1.984,1.984,0,1,1,1.983-1.983,1.988,1.988,0,0,1-1.983,1.983Zm0,0" transform="translate(-280.811 -626.803)" fill="#030504"/>
        <rect id="Rectangle_18" data-name="Rectangle 18" width="21.815" height="1.983" transform="translate(18.841 40.656)" fill="#030504"/>
        <rect id="Rectangle_19" data-name="Rectangle 19" width="21.815" height="1.983" transform="translate(18.841 44.622)" fill="#030504"/>
        <path id="Path_14" data-name="Path 14" d="M363.378,667.959H360.4V657.052a6.95,6.95,0,0,0-6.94-6.942h-35.7a6.951,6.951,0,0,0-6.942,6.942v3.967h23.8v23.8h-7.888l3.921-4.357v2.374h1.983v-9.915h-1.983V677.5l-6.591,7.32H312.807V663h-1.983v4.959h-2.975a1.989,1.989,0,0,0-1.984,1.983v9.917a1.985,1.985,0,0,0,1.984,1.981h2.975V698.7a2.981,2.981,0,0,0,1.983,2.805v6.12a1.984,1.984,0,0,0,1.983,1.984h5.948a1.984,1.984,0,0,0,1.983-1.984v-5.95h33.714v5.95h-5.948v-3.967H348.5v3.967a1.986,1.986,0,0,0,1.983,1.984h5.948a1.986,1.986,0,0,0,1.983-1.984V701.5A2.981,2.981,0,0,0,360.4,698.7V681.841h2.975a1.984,1.984,0,0,0,1.983-1.983v-9.915a1.987,1.987,0,0,0-1.983-1.983Zm-50.571-10.907a4.963,4.963,0,0,1,4.959-4.959h35.7a4.963,4.963,0,0,1,4.956,4.959v1.983H312.807Zm23.8,3.967H358.42v23.8H347.161l-6.59-7.32v-4.578h-1.984v9.915h1.984v-2.374l3.921,4.357h-7.885Zm-28.758,18.84v-9.917h2.975v9.917Zm12.89,27.763h-5.948v-5.95h5.948Zm36.689-7.934H313.8a.991.991,0,0,1-.992-.992V686.8h9.474l-.3.327,1.474,1.329,1.491-1.656h21.328l1.489,1.656,1.474-1.326-.3-.33h9.474v11.9a.991.991,0,0,1-.992.992Zm5.95-19.832H360.4v-9.915h2.975l0,9.915Zm0,0" transform="translate(-305.865 -650.11)" fill="#030504"/>
        <rect id="Rectangle_20" data-name="Rectangle 20" width="1.983" height="1.983" transform="translate(28.757 3.967)" fill="#030504"/>
        <rect id="Rectangle_21" data-name="Rectangle 21" width="1.983" height="1.983" transform="translate(32.723 3.967)" fill="#030504"/>
        <rect id="Rectangle_22" data-name="Rectangle 22" width="1.983" height="1.983" transform="translate(24.791 3.967)" fill="#030504"/>
        <rect id="Rectangle_23" data-name="Rectangle 23" width="1.983" height="1.983" transform="translate(10.908 3.967)" fill="#030504"/>
        <rect id="Rectangle_24" data-name="Rectangle 24" width="1.983" height="1.983" transform="translate(46.606 3.967)" fill="#030504"/>
      </g>
      <g id="Group_7" data-name="Group 7" transform="translate(46.897)">
        <path id="Path_15" data-name="Path 15" d="M303,652.7a1.563,1.563,0,1,0-1.562-1.564A1.565,1.565,0,0,0,303,652.7Z" transform="translate(-257.536 -643.322)" fill="#030504"/>
        <path id="Path_16" data-name="Path 16" d="M292.684,652.7a1.563,1.563,0,1,0-1.562-1.564A1.565,1.565,0,0,0,292.684,652.7Z" transform="translate(-272.23 -643.322)" fill="#030504"/>
        <path id="Path_17" data-name="Path 17" d="M338.451,713.567a7.823,7.823,0,0,0,7.531-7.808V659.383a10.934,10.934,0,0,0-8.812-10.73A86.911,86.911,0,0,0,320.292,647h-8.259a85.126,85.126,0,0,0-16.646,1.646,10.973,10.973,0,0,0-8.795,10.73V705.76a7.823,7.823,0,0,0,7.638,7.81l-10.458,10.8a1.562,1.562,0,0,0,1.123,2.65h11.173a1.563,1.563,0,0,0,1.266-.645l4.741-6.544h28.566l4.74,6.544a1.562,1.562,0,0,0,1.266.645h11.018a1.562,1.562,0,0,0,1.13-2.643Zm-48.733-7.808V659.371A7.84,7.84,0,0,1,296,651.706a82.071,82.071,0,0,1,16.033-1.586h8.259a83.936,83.936,0,0,1,16.273,1.6,7.815,7.815,0,0,1,6.292,7.665V705.76a4.694,4.694,0,0,1-4.687,4.69H294.408A4.7,4.7,0,0,1,289.718,705.76Zm5.553,18.13h-6.688l9.995-10.315h4.166Zm9.069-7.189,2.265-3.126h19.507l2.265,3.126Zm33.106,7.189-7.473-10.315h4.161l9.874,10.315Z" transform="translate(-283.331 -646.995)" fill="#030504"/>
        <path id="Path_18" data-name="Path 18" d="M288.818,681.222H332.58a1.563,1.563,0,0,0,1.562-1.564V653.715a1.563,1.563,0,0,0-1.562-1.564H288.818a1.565,1.565,0,0,0-1.564,1.564v25.943A1.565,1.565,0,0,0,288.818,681.222Zm42.2-3.125H312.261v-22.82h18.756Zm-40.634-22.82h18.753V678.1H290.382Z" transform="translate(-277.741 -639.649)" fill="#030504"/>
        <path id="Path_19" data-name="Path 19" d="M295.264,652.7h12.5a1.563,1.563,0,1,0,0-3.125h-12.5a1.563,1.563,0,1,0,0,3.125Z" transform="translate(-268.557 -643.322)" fill="#030504"/>
        <path id="Path_20" data-name="Path 20" d="M307.686,666.074a6.251,6.251,0,1,0,6.251,6.251A6.257,6.257,0,0,0,307.686,666.074Zm0,9.377a3.126,3.126,0,1,1,3.126-3.125A3.128,3.128,0,0,1,307.686,675.451Z" transform="translate(-257.536 -619.812)" fill="#030504"/>
        <path id="Path_21" data-name="Path 21" d="M293.508,678.576a6.251,6.251,0,1,0-6.254-6.251A6.258,6.258,0,0,0,293.508,678.576Zm0-9.377a3.126,3.126,0,1,1-3.126,3.126A3.13,3.13,0,0,1,293.508,669.2Z" transform="translate(-277.741 -619.812)" fill="#030504"/>
        <path id="Path_22" data-name="Path 22" d="M307.766,666.718h-12.5a1.563,1.563,0,1,0,0,3.126h12.5a1.563,1.563,0,1,0,0-3.126Z" transform="translate(-268.557 -618.894)" fill="#030504"/>
        <path id="Path_23" data-name="Path 23" d="M307.766,669.3h-12.5a1.564,1.564,0,1,0,0,3.128h12.5a1.564,1.564,0,1,0,0-3.128Z" transform="translate(-268.557 -615.221)" fill="#030504"/>
      </g>
      <g id="Group_8" data-name="Group 8" transform="translate(0 23.055)">
        <path id="Path_24" data-name="Path 24" d="M281.435,662.391h-1.9a.889.889,0,1,0,0,1.777h1.9a.889.889,0,1,0,0-1.777Z" transform="translate(-243.104 -648.114)" fill="#030504"/>
        <path id="Path_25" data-name="Path 25" d="M292.325,665.129H271.991a1.839,1.839,0,0,0-1.782,2.284l.473,1.9a1.837,1.837,0,0,0,1.785,1.392H291.85a1.837,1.837,0,0,0,1.785-1.392l.473-1.9a1.839,1.839,0,0,0-1.782-2.284Zm.058,1.852-.475,1.9a.06.06,0,0,1-.058.046H272.466a.06.06,0,0,1-.058-.046l-.475-1.9a.051.051,0,0,1,.012-.051.053.053,0,0,1,.046-.022h20.334a.053.053,0,0,1,.046.022A.051.051,0,0,1,292.383,666.982Z" transform="translate(-255.209 -644.213)" fill="#030504"/>
        <path id="Path_26" data-name="Path 26" d="M314.2,673.457a2.786,2.786,0,0,0,0-5.572h-.948a2.791,2.791,0,0,0-2.752,2.342l-2.371-6.523a3.742,3.742,0,0,0-3.509-2.459h-6.765l-.5-2.5a2.793,2.793,0,0,0-2.733-2.241h-8.271a2.793,2.793,0,0,0-2.733,2.241l-.5,2.5h-6.763a3.745,3.745,0,0,0-3.511,2.459l-2.371,6.523a2.79,2.79,0,0,0-2.75-2.342h-.951a2.786,2.786,0,1,0,0,5.572h.951a2.748,2.748,0,0,0,1.22-.284l-2.032,2.541a4.7,4.7,0,0,0-1.026,2.927v17.64a1.839,1.839,0,0,0,1.838,1.835h2.844a1.839,1.839,0,0,0,1.838-1.835v-3.855H308.57v3.855a1.839,1.839,0,0,0,1.838,1.835h2.847a1.839,1.839,0,0,0,1.838-1.835v-17.64a4.707,4.707,0,0,0-1.028-2.927l-2.032-2.541a2.751,2.751,0,0,0,1.222.284ZM285.364,659.09a1.014,1.014,0,0,1,.989-.81h8.271a1.012,1.012,0,0,1,.989.81l.432,2.156h-11.11Zm-17.638,12.59h-.951a1.009,1.009,0,0,1,0-2.018h.951a1.009,1.009,0,0,1,0,2.018Zm2.9,24.6a.06.06,0,0,1-.061.058h-2.844a.06.06,0,0,1-.061-.058v-4.408a3.712,3.712,0,0,0,1.957.553h1.009Zm30.351-5.633H280v-1.957a.06.06,0,0,1,.061-.058h20.868a.059.059,0,0,1,.058.058Zm12.272,5.691h-2.847a.059.059,0,0,1-.058-.058v-3.855h1.006a3.712,3.712,0,0,0,1.957-.553v4.408A.059.059,0,0,1,313.254,696.34Zm.058-17.7v10.051a1.959,1.959,0,0,1-1.957,1.957h-8.6v-1.957a1.839,1.839,0,0,0-1.836-1.838H280.057a1.84,1.84,0,0,0-1.838,1.838v1.957h-8.6a1.959,1.959,0,0,1-1.957-1.957V678.641a2.9,2.9,0,0,1,.638-1.814L271,673.457h25.184a.889.889,0,0,0,0-1.777h-24.34l2.679-7.369a1.962,1.962,0,0,1,1.838-1.288h28.263a1.965,1.965,0,0,1,1.838,1.288l2.679,7.369h-3.475a.889.889,0,0,0,0,1.777h4.316l2.7,3.371A2.912,2.912,0,0,1,313.312,678.641Zm-1.067-7.97a1.011,1.011,0,0,1,1.009-1.009h.948a1.009,1.009,0,0,1,0,2.018h-.948A1.011,1.011,0,0,1,312.246,670.671Z" transform="translate(-263.99 -656.503)" fill="#030504"/>
        <path id="Path_27" data-name="Path 27" d="M269.143,667.867a1.838,1.838,0,1,0,1.838,1.838A1.84,1.84,0,0,0,269.143,667.867Z" transform="translate(-259.267 -640.312)" fill="#030504"/>
        <path id="Path_28" data-name="Path 28" d="M283.225,667.867a1.838,1.838,0,1,0,1.838,1.838A1.84,1.84,0,0,0,283.225,667.867Z" transform="translate(-239.203 -640.312)" fill="#030504"/>
        <path id="Path_29" data-name="Path 29" d="M269.782,664.738A3.26,3.26,0,1,0,273.043,668,3.264,3.264,0,0,0,269.782,664.738Zm0,4.743A1.483,1.483,0,1,1,271.266,668,1.483,1.483,0,0,1,269.782,669.481Z" transform="translate(-260.381 -644.77)" fill="#030504"/>
        <path id="Path_30" data-name="Path 30" d="M284.257,664.738A3.26,3.26,0,1,0,287.516,668,3.264,3.264,0,0,0,284.257,664.738Zm0,4.743A1.483,1.483,0,1,1,285.739,668,1.485,1.485,0,0,1,284.257,669.481Z" transform="translate(-239.76 -644.77)" fill="#030504"/>
      </g>
    </g>
    <rect id="Rectangle_37" data-name="Rectangle 37" width="165" height="110" transform="translate(718.963 404.231)" fill="none" opacity="0"/>
  </g>
</svg>
