<svg xmlns="http://www.w3.org/2000/svg" xmlns:xlink="http://www.w3.org/1999/xlink" width="110" height="110" viewBox="0 0 110 110">
  <defs>
    <clipPath id="clip-path">
      <rect id="Rectangle_31" data-name="Rectangle 31" width="95.503" height="95.503" fill="#030504"/>
    </clipPath>
  </defs>
  <g id="Group_21" data-name="Group 21" transform="translate(-862.183 -410.183)">
    <g id="Group_22" data-name="Group 22" transform="translate(861.683 409.683)">
      <g id="Group_6" data-name="Group 6" transform="translate(7.604 7.604)">
        <g id="Group_15" data-name="Group 15">
          <g id="Group_14" data-name="Group 14" clip-path="url(#clip-path)">
            <path id="Path_34" data-name="Path 34" d="M532.737,708.926H443.4a3.08,3.08,0,1,0,0,6.16h1.31a47.766,47.766,0,0,0,86.721,0h1.31a3.08,3.08,0,1,0,0-6.16Zm-62.013,6.16h14.263V733.84a47.5,47.5,0,0,1-14.263-18.753Zm20.423,18.753V715.086h14.26a47.466,47.466,0,0,1-14.26,18.753ZM451.6,715.086h12.478a55.6,55.6,0,0,0,13.186,20.155A41.4,41.4,0,0,1,451.6,715.086Zm47.27,20.155a55.651,55.651,0,0,0,13.189-20.155h12.478a41.4,41.4,0,0,1-25.666,20.155ZM443.4,681.2h89.341a3.082,3.082,0,0,0,0-6.163h-1.31a47.767,47.767,0,0,0-86.721,0H443.4a3.082,3.082,0,1,0,0,6.163Zm62.164-6.163H491.147V656.507a55.337,55.337,0,0,1,14.413,18.529Zm-20.574-18.529v18.529H470.573a55.3,55.3,0,0,1,14.413-18.529Zm39.548,18.529H512.281a60.192,60.192,0,0,0-13.932-20.288,41.4,41.4,0,0,1,26.186,20.288Zm-46.75-20.288a60.15,60.15,0,0,0-13.932,20.288H451.6a41.4,41.4,0,0,1,26.186-20.288ZM470.4,685.162a3.08,3.08,0,0,1,2.145,3.791L468.7,702.818a3.082,3.082,0,0,1-5.281,1.21l-3.08-3.5-3.077,3.5a3.083,3.083,0,0,1-5.281-1.21l-3.85-13.864a3.081,3.081,0,0,1,5.936-1.649l2.328,8.382c1.587-1.806,2.236-2.9,3.945-2.9s2.354,1.091,3.948,2.9l2.328-8.382a3.081,3.081,0,0,1,3.791-2.142Zm55.455,0A3.08,3.08,0,0,1,528,688.954l-3.853,13.864a3.082,3.082,0,0,1-5.281,1.21l-3.077-3.5-3.078,3.5a3.083,3.083,0,0,1-5.281-1.21l-3.85-13.864a3.081,3.081,0,0,1,5.936-1.649l2.328,8.382c1.587-1.806,2.234-2.9,3.945-2.9s2.354,1.091,3.948,2.9l2.328-8.382a3.081,3.081,0,0,1,3.791-2.142Zm-27.726,0a3.076,3.076,0,0,1,2.142,3.791l-3.85,13.864a3.082,3.082,0,0,1-5.282,1.21l-3.077-3.5-3.077,3.5a3.085,3.085,0,0,1-5.284-1.21l-3.85-13.864a3.081,3.081,0,0,1,5.936-1.649l2.328,8.382c1.587-1.806,2.236-2.9,3.948-2.9s2.354,1.091,3.945,2.9l2.328-8.382a3.084,3.084,0,0,1,3.794-2.142Zm0,0" transform="translate(-440.314 -647.311)" fill="#030504"/>
          </g>
        </g>
      </g>
      <rect id="Rectangle_39" data-name="Rectangle 39" width="110" height="110" transform="translate(0.5 0.5)" fill="none" opacity="0"/>
    </g>
  </g>
</svg>
